<svg width="40" height="34" viewBox="0 0 40 34" fill="none" xmlns="http://www.w3.org/2000/svg">
<path d="M26.75 1C24.455 1 22.475 2.35456 21.26 4.40574C23.285 6.49563 24.5 9.35955 24.5 12.6492C24.5 13.7715 24.365 14.7778 24.095 15.784C24.95 16.2097 25.805 16.5194 26.75 16.5194C30.485 16.5194 33.5 13.0362 33.5 8.77903C33.5 4.52185 30.485 1.0387 26.75 1.0387V1ZM13.25 4.87016C9.515 4.87016 6.5 8.35331 6.5 12.6105C6.5 16.8677 9.515 20.3508 13.25 20.3508C16.985 20.3508 20 16.8677 20 12.6105C20 8.35331 16.985 4.87016 13.25 4.87016ZM34.625 17.0999C32.69 19.0737 30.035 20.2734 27.02 20.3508C28.235 21.8215 29 23.6017 29 25.5368V28.0911H38V21.6667C38 19.6542 36.605 17.9126 34.625 17.0612V17.0999ZM5.375 20.97C3.395 21.8215 2 23.563 2 25.5755V32H24.5V25.5755C24.5 23.563 23.105 21.8215 21.125 20.97C19.1 23.0212 16.355 24.221 13.25 24.221C10.145 24.221 7.4 22.9825 5.375 20.97Z" fill="#D2E0FB"/>
</svg>
