<svg width="48" height="41" viewBox="0 0 48 41" fill="none" xmlns="http://www.w3.org/2000/svg">
<path d="M31.5 4C28.95 4 26.75 5.46067 25.4 7.67255C27.65 9.92616 29 13.0144 29 16.5618C29 17.7721 28.85 18.8571 28.55 19.9422C29.5 20.4013 30.45 20.7352 31.5 20.7352C35.65 20.7352 39 16.9791 39 12.3884C39 7.79775 35.65 4.04173 31.5 4.04173V4ZM16.5 8.17335C12.35 8.17335 9 11.9294 9 16.5201C9 21.1108 12.35 24.8668 16.5 24.8668C20.65 24.8668 24 21.1108 24 16.5201C24 11.9294 20.65 8.17335 16.5 8.17335ZM40.25 21.3612C38.1 23.4896 35.15 24.7833 31.8 24.8668C33.15 26.4526 34 28.3724 34 30.4591V33.2135H44V26.2857C44 24.1156 42.45 22.2376 40.25 21.3194V21.3612ZM7.75 25.5345C5.55 26.4526 4 28.3307 4 30.5008V37.4286H29V30.5008C29 28.3307 27.45 26.4526 25.25 25.5345C23 27.7464 19.95 29.0401 16.5 29.0401C13.05 29.0401 10 27.7046 7.75 25.5345Z" fill="#D2E0FB"/>
</svg>
