<svg width="134" height="18" viewBox="0 0 134 18" fill="none" xmlns="http://www.w3.org/2000/svg">
<path d="M13.4665 3.4125H8.4525V17.5H5.359V3.4125H0.345V0.870999H13.4665V3.4125ZM20.0328 10.2435C20.0328 9.8755 19.9792 9.5305 19.8718 9.2085C19.7722 8.87883 19.6188 8.59133 19.4118 8.346C19.2048 8.10067 18.9403 7.909 18.6183 7.771C18.304 7.62533 17.936 7.5525 17.5143 7.5525C16.694 7.5525 16.0462 7.78633 15.5708 8.254C15.1032 8.72167 14.8042 9.38483 14.6738 10.2435H20.0328ZM14.6163 11.957C14.6623 12.5627 14.7697 13.0878 14.9383 13.5325C15.107 13.9695 15.3293 14.3337 15.6053 14.625C15.8813 14.9087 16.2072 15.1233 16.5828 15.269C16.9662 15.407 17.3878 15.476 17.8478 15.476C18.3078 15.476 18.7027 15.4223 19.0323 15.315C19.3697 15.2077 19.661 15.0888 19.9063 14.9585C20.1593 14.8282 20.3778 14.7093 20.5618 14.602C20.7535 14.4947 20.9375 14.441 21.1138 14.441C21.3515 14.441 21.5278 14.5292 21.6428 14.7055L22.4593 15.7405C22.145 16.1085 21.7923 16.419 21.4013 16.672C21.0103 16.9173 20.6002 17.1167 20.1708 17.27C19.7492 17.4157 19.316 17.5192 18.8713 17.5805C18.4343 17.6418 18.0088 17.6725 17.5948 17.6725C16.7745 17.6725 16.0117 17.5383 15.3063 17.27C14.601 16.994 13.9877 16.5915 13.4663 16.0625C12.945 15.5258 12.5348 14.8665 12.2358 14.0845C11.9368 13.2948 11.7873 12.3825 11.7873 11.3475C11.7873 10.5425 11.9177 9.78733 12.1783 9.082C12.439 8.369 12.8108 7.75183 13.2938 7.2305C13.7845 6.7015 14.3787 6.28367 15.0763 5.977C15.7817 5.67033 16.5752 5.517 17.4568 5.517C18.2005 5.517 18.8867 5.63583 19.5153 5.8735C20.144 6.11117 20.6845 6.46 21.1368 6.92C21.5892 7.37233 21.9418 7.932 22.1948 8.599C22.4555 9.25833 22.5858 10.0135 22.5858 10.8645C22.5858 11.2938 22.5398 11.5852 22.4478 11.7385C22.3558 11.8842 22.1795 11.957 21.9188 11.957H14.6163ZM27.5925 0.410999V17.5H24.752V0.410999H27.5925ZM38.024 10.2435C38.024 9.8755 37.9704 9.5305 37.863 9.2085C37.7634 8.87883 37.61 8.59133 37.403 8.346C37.196 8.10067 36.9315 7.909 36.6095 7.771C36.2952 7.62533 35.9272 7.5525 35.5055 7.5525C34.6852 7.5525 34.0374 7.78633 33.562 8.254C33.0944 8.72167 32.7954 9.38483 32.665 10.2435H38.024ZM32.6075 11.957C32.6535 12.5627 32.7609 13.0878 32.9295 13.5325C33.0982 13.9695 33.3205 14.3337 33.5965 14.625C33.8725 14.9087 34.1984 15.1233 34.574 15.269C34.9574 15.407 35.379 15.476 35.839 15.476C36.299 15.476 36.6939 15.4223 37.0235 15.315C37.3609 15.2077 37.6522 15.0888 37.8975 14.9585C38.1505 14.8282 38.369 14.7093 38.553 14.602C38.7447 14.4947 38.9287 14.441 39.105 14.441C39.3427 14.441 39.519 14.5292 39.634 14.7055L40.4505 15.7405C40.1362 16.1085 39.7835 16.419 39.3925 16.672C39.0015 16.9173 38.5914 17.1167 38.162 17.27C37.7404 17.4157 37.3072 17.5192 36.8625 17.5805C36.4255 17.6418 36 17.6725 35.586 17.6725C34.7657 17.6725 34.0029 17.5383 33.2975 17.27C32.5922 16.994 31.9789 16.5915 31.4575 16.0625C30.9362 15.5258 30.526 14.8665 30.227 14.0845C29.928 13.2948 29.7785 12.3825 29.7785 11.3475C29.7785 10.5425 29.9089 9.78733 30.1695 9.082C30.4302 8.369 30.802 7.75183 31.285 7.2305C31.7757 6.7015 32.3699 6.28367 33.0675 5.977C33.7729 5.67033 34.5664 5.517 35.448 5.517C36.1917 5.517 36.8779 5.63583 37.5065 5.8735C38.1352 6.11117 38.6757 6.46 39.128 6.92C39.5804 7.37233 39.933 7.932 40.186 8.599C40.4467 9.25833 40.577 10.0135 40.577 10.8645C40.577 11.2938 40.531 11.5852 40.439 11.7385C40.347 11.8842 40.1707 11.957 39.91 11.957H32.6075Z" fill="#9BE8D8"/>
<path d="M42.7087 17.5V5.701H44.4452C44.8132 5.701 45.0547 5.8735 45.1697 6.2185L45.3537 7.0925C45.5607 6.8625 45.7753 6.65167 45.9977 6.46C46.2277 6.26833 46.4692 6.1035 46.7222 5.9655C46.9828 5.8275 47.2588 5.72017 47.5502 5.6435C47.8492 5.55917 48.175 5.517 48.5277 5.517C49.2713 5.517 49.8808 5.72017 50.3562 6.1265C50.8392 6.52517 51.1995 7.058 51.4372 7.725C51.6212 7.334 51.8512 7.0005 52.1272 6.7245C52.4032 6.44083 52.706 6.21083 53.0357 6.0345C53.3653 5.85817 53.7142 5.72783 54.0822 5.6435C54.4578 5.55917 54.8335 5.517 55.2092 5.517C55.8608 5.517 56.4397 5.61667 56.9457 5.816C57.4517 6.01533 57.8772 6.30667 58.2222 6.69C58.5672 7.07333 58.8278 7.541 59.0042 8.093C59.1882 8.645 59.2802 9.2775 59.2802 9.9905V17.5H56.4397V9.9905C56.4397 9.23917 56.2748 8.67567 55.9452 8.3C55.6155 7.91667 55.1325 7.725 54.4962 7.725C54.2048 7.725 53.9327 7.77483 53.6797 7.8745C53.4343 7.97417 53.2158 8.11983 53.0242 8.3115C52.8402 8.4955 52.6945 8.72933 52.5872 9.013C52.4798 9.29667 52.4262 9.6225 52.4262 9.9905V17.5H49.5742V9.9905C49.5742 9.20083 49.4132 8.62583 49.0912 8.2655C48.7768 7.90517 48.313 7.725 47.6997 7.725C47.2857 7.725 46.8985 7.8285 46.5382 8.0355C46.1855 8.23483 45.8558 8.51083 45.5492 8.8635V17.5H42.7087ZM69.5816 10.2435C69.5816 9.8755 69.528 9.5305 69.4206 9.2085C69.321 8.87883 69.1676 8.59133 68.9606 8.346C68.7536 8.10067 68.4891 7.909 68.1671 7.771C67.8528 7.62533 67.4848 7.5525 67.0631 7.5525C66.2428 7.5525 65.595 7.78633 65.1196 8.254C64.652 8.72167 64.353 9.38483 64.2226 10.2435H69.5816ZM64.1651 11.957C64.2111 12.5627 64.3185 13.0878 64.4871 13.5325C64.6558 13.9695 64.8781 14.3337 65.1541 14.625C65.4301 14.9087 65.756 15.1233 66.1316 15.269C66.515 15.407 66.9366 15.476 67.3966 15.476C67.8566 15.476 68.2515 15.4223 68.5811 15.315C68.9185 15.2077 69.2098 15.0888 69.4551 14.9585C69.7081 14.8282 69.9266 14.7093 70.1106 14.602C70.3023 14.4947 70.4863 14.441 70.6626 14.441C70.9003 14.441 71.0766 14.5292 71.1916 14.7055L72.0081 15.7405C71.6938 16.1085 71.3411 16.419 70.9501 16.672C70.5591 16.9173 70.149 17.1167 69.7196 17.27C69.298 17.4157 68.8648 17.5192 68.4201 17.5805C67.9831 17.6418 67.5576 17.6725 67.1436 17.6725C66.3233 17.6725 65.5605 17.5383 64.8551 17.27C64.1498 16.994 63.5365 16.5915 63.0151 16.0625C62.4938 15.5258 62.0836 14.8665 61.7846 14.0845C61.4856 13.2948 61.3361 12.3825 61.3361 11.3475C61.3361 10.5425 61.4665 9.78733 61.7271 9.082C61.9878 8.369 62.3596 7.75183 62.8426 7.2305C63.3333 6.7015 63.9275 6.28367 64.6251 5.977C65.3305 5.67033 66.124 5.517 67.0056 5.517C67.7493 5.517 68.4355 5.63583 69.0641 5.8735C69.6928 6.11117 70.2333 6.46 70.6856 6.92C71.138 7.37233 71.4906 7.932 71.7436 8.599C72.0043 9.25833 72.1346 10.0135 72.1346 10.8645C72.1346 11.2938 72.0886 11.5852 71.9966 11.7385C71.9046 11.8842 71.7283 11.957 71.4676 11.957H64.1651ZM81.6723 8.714C81.3503 8.323 80.9976 8.047 80.6143 7.886C80.2386 7.725 79.8323 7.6445 79.3953 7.6445C78.9659 7.6445 78.5788 7.725 78.2338 7.886C77.8888 8.047 77.5936 8.29233 77.3483 8.622C77.1029 8.944 76.9151 9.358 76.7848 9.864C76.6544 10.3623 76.5893 10.9527 76.5893 11.635C76.5893 12.325 76.6429 12.9115 76.7503 13.3945C76.8653 13.8698 77.0263 14.2608 77.2333 14.5675C77.4403 14.8665 77.6933 15.085 77.9923 15.223C78.2913 15.3533 78.6248 15.4185 78.9928 15.4185C79.5831 15.4185 80.0853 15.2958 80.4993 15.0505C80.9133 14.8052 81.3043 14.4563 81.6723 14.004V8.714ZM84.5128 0.410999V17.5H82.7763C82.4006 17.5 82.1629 17.3275 82.0633 16.9825L81.8218 15.844C81.3464 16.3883 80.7983 16.8292 80.1773 17.1665C79.5639 17.5038 78.8471 17.6725 78.0268 17.6725C77.3828 17.6725 76.7924 17.5383 76.2558 17.27C75.7191 17.0017 75.2553 16.6145 74.8643 16.1085C74.4809 15.5948 74.1819 14.9623 73.9673 14.211C73.7603 13.4597 73.6568 12.601 73.6568 11.635C73.6568 10.761 73.7756 9.94833 74.0133 9.197C74.2509 8.44567 74.5921 7.794 75.0368 7.242C75.4814 6.69 76.0143 6.26067 76.6353 5.954C77.2563 5.63967 77.9539 5.4825 78.7283 5.4825C79.3876 5.4825 79.9511 5.586 80.4188 5.793C80.8864 6 81.3043 6.27983 81.6723 6.6325V0.410999H84.5128ZM90.2601 5.701V17.5H87.4081V5.701H90.2601ZM90.6511 2.2625C90.6511 2.50783 90.6013 2.73783 90.5016 2.9525C90.4019 3.16717 90.2678 3.355 90.0991 3.516C89.9381 3.677 89.7464 3.80733 89.5241 3.907C89.3018 3.999 89.0641 4.045 88.8111 4.045C88.5658 4.045 88.3319 3.999 88.1096 3.907C87.8949 3.80733 87.7071 3.677 87.5461 3.516C87.3851 3.355 87.2548 3.16717 87.1551 2.9525C87.0631 2.73783 87.0171 2.50783 87.0171 2.2625C87.0171 2.0095 87.0631 1.77183 87.1551 1.5495C87.2548 1.32717 87.3851 1.1355 87.5461 0.9745C87.7071 0.813499 87.8949 0.686999 88.1096 0.595C88.3319 0.495333 88.5658 0.4455 88.8111 0.4455C89.0641 0.4455 89.3018 0.495333 89.5241 0.595C89.7464 0.686999 89.9381 0.813499 90.0991 0.9745C90.2678 1.1355 90.4019 1.32717 90.5016 1.5495C90.6013 1.77183 90.6511 2.0095 90.6511 2.2625ZM101.608 8.1965C101.524 8.30383 101.44 8.38817 101.355 8.4495C101.279 8.51083 101.164 8.5415 101.01 8.5415C100.865 8.5415 100.723 8.49933 100.585 8.415C100.447 8.323 100.282 8.22333 100.09 8.116C99.8988 8.001 99.6688 7.90133 99.4004 7.817C99.1398 7.725 98.8139 7.679 98.4229 7.679C97.9246 7.679 97.4876 7.771 97.1119 7.955C96.7363 8.13133 96.4219 8.38817 96.1689 8.7255C95.9236 9.06283 95.7396 9.473 95.6169 9.956C95.4943 10.4313 95.4329 10.9718 95.4329 11.5775C95.4329 12.2062 95.4981 12.7658 95.6284 13.2565C95.7664 13.7472 95.9619 14.1612 96.2149 14.4985C96.4679 14.8282 96.7746 15.0812 97.1349 15.2575C97.4953 15.4262 97.9016 15.5105 98.3539 15.5105C98.8063 15.5105 99.1704 15.4568 99.4464 15.3495C99.7301 15.2345 99.9678 15.1118 100.159 14.9815C100.351 14.8435 100.516 14.7208 100.654 14.6135C100.8 14.4985 100.961 14.441 101.137 14.441C101.367 14.441 101.539 14.5292 101.654 14.7055L102.471 15.7405C102.157 16.1085 101.815 16.419 101.447 16.672C101.079 16.9173 100.696 17.1167 100.297 17.27C99.9064 17.4157 99.5001 17.5192 99.0784 17.5805C98.6644 17.6418 98.2504 17.6725 97.8364 17.6725C97.1081 17.6725 96.4219 17.5383 95.7779 17.27C95.1339 16.994 94.5704 16.5953 94.0874 16.074C93.6044 15.5527 93.2211 14.9163 92.9374 14.165C92.6614 13.406 92.5234 12.5435 92.5234 11.5775C92.5234 10.7112 92.6461 9.91 92.8914 9.174C93.1444 8.43033 93.5124 7.79017 93.9954 7.2535C94.4784 6.70917 95.0764 6.28367 95.7894 5.977C96.5024 5.67033 97.3228 5.517 98.2504 5.517C99.1321 5.517 99.9026 5.65883 100.562 5.9425C101.229 6.22617 101.827 6.6325 102.356 7.1615L101.608 8.1965ZM107.196 5.701V17.5H104.344V5.701H107.196ZM107.587 2.2625C107.587 2.50783 107.537 2.73783 107.437 2.9525C107.337 3.16717 107.203 3.355 107.035 3.516C106.874 3.677 106.682 3.80733 106.46 3.907C106.237 3.999 106 4.045 105.747 4.045C105.501 4.045 105.267 3.999 105.045 3.907C104.83 3.80733 104.643 3.677 104.482 3.516C104.321 3.355 104.19 3.16717 104.091 2.9525C103.999 2.73783 103.953 2.50783 103.953 2.2625C103.953 2.0095 103.999 1.77183 104.091 1.5495C104.19 1.32717 104.321 1.1355 104.482 0.9745C104.643 0.813499 104.83 0.686999 105.045 0.595C105.267 0.495333 105.501 0.4455 105.747 0.4455C106 0.4455 106.237 0.495333 106.46 0.595C106.682 0.686999 106.874 0.813499 107.035 0.9745C107.203 1.1355 107.337 1.32717 107.437 1.5495C107.537 1.77183 107.587 2.0095 107.587 2.2625ZM112.748 7.15C112.986 6.91233 113.235 6.69383 113.495 6.4945C113.764 6.2875 114.044 6.115 114.335 5.977C114.634 5.83133 114.952 5.72017 115.289 5.6435C115.627 5.55917 115.995 5.517 116.393 5.517C117.037 5.517 117.609 5.62817 118.107 5.8505C118.605 6.06517 119.019 6.37183 119.349 6.7705C119.686 7.1615 119.939 7.633 120.108 8.185C120.284 8.72933 120.372 9.33117 120.372 9.9905V17.5H117.532V9.9905C117.532 9.26983 117.367 8.714 117.037 8.323C116.708 7.92433 116.206 7.725 115.531 7.725C115.04 7.725 114.58 7.83617 114.151 8.0585C113.722 8.28083 113.315 8.58367 112.932 8.967V17.5H110.091V5.701H111.828C112.196 5.701 112.437 5.8735 112.552 6.2185L112.748 7.15ZM130.675 10.2435C130.675 9.8755 130.622 9.5305 130.514 9.2085C130.415 8.87883 130.261 8.59133 130.054 8.346C129.847 8.10067 129.583 7.909 129.261 7.771C128.947 7.62533 128.579 7.5525 128.157 7.5525C127.337 7.5525 126.689 7.78633 126.213 8.254C125.746 8.72167 125.447 9.38483 125.316 10.2435H130.675ZM125.259 11.957C125.305 12.5627 125.412 13.0878 125.581 13.5325C125.75 13.9695 125.972 14.3337 126.248 14.625C126.524 14.9087 126.85 15.1233 127.225 15.269C127.609 15.407 128.03 15.476 128.49 15.476C128.95 15.476 129.345 15.4223 129.675 15.315C130.012 15.2077 130.304 15.0888 130.549 14.9585C130.802 14.8282 131.02 14.7093 131.204 14.602C131.396 14.4947 131.58 14.441 131.756 14.441C131.994 14.441 132.17 14.5292 132.285 14.7055L133.102 15.7405C132.788 16.1085 132.435 16.419 132.044 16.672C131.653 16.9173 131.243 17.1167 130.813 17.27C130.392 17.4157 129.959 17.5192 129.514 17.5805C129.077 17.6418 128.651 17.6725 128.237 17.6725C127.417 17.6725 126.654 17.5383 125.949 17.27C125.244 16.994 124.63 16.5915 124.109 16.0625C123.588 15.5258 123.177 14.8665 122.878 14.0845C122.579 13.2948 122.43 12.3825 122.43 11.3475C122.43 10.5425 122.56 9.78733 122.821 9.082C123.082 8.369 123.453 7.75183 123.936 7.2305C124.427 6.7015 125.021 6.28367 125.719 5.977C126.424 5.67033 127.218 5.517 128.099 5.517C128.843 5.517 129.529 5.63583 130.158 5.8735C130.787 6.11117 131.327 6.46 131.779 6.92C132.232 7.37233 132.584 7.932 132.837 8.599C133.098 9.25833 133.228 10.0135 133.228 10.8645C133.228 11.2938 133.182 11.5852 133.09 11.7385C132.998 11.8842 132.822 11.957 132.561 11.957H125.259Z" fill="#8CC0DE"/>
</svg>
